<mxfile host="app.diagrams.net" agent="Mozilla/5.0 (Windows NT 10.0; Win64; x64) AppleWebKit/537.36 (KHTML, like Gecko) Chrome/133.0.0.0 Safari/537.36" version="26.0.16">
  <diagram name="Page-1" id="GzerXC3LUYd5ISqL_CLm">
    <mxGraphModel dx="1518" dy="622" grid="1" gridSize="10" guides="1" tooltips="1" connect="1" arrows="1" fold="1" page="1" pageScale="1" pageWidth="850" pageHeight="1100" math="0" shadow="0">
      <root>
        <mxCell id="0" />
        <mxCell id="1" parent="0" />
        <mxCell id="WMcVWSRBbnNXBX-DPDhE-42" value="" style="rounded=0;whiteSpace=wrap;html=1;" vertex="1" parent="1">
          <mxGeometry x="181.01" y="470" width="570" height="280" as="geometry" />
        </mxCell>
        <mxCell id="WMcVWSRBbnNXBX-DPDhE-37" value="" style="whiteSpace=wrap;html=1;aspect=fixed;" vertex="1" parent="1">
          <mxGeometry x="570" y="61" width="360" height="360" as="geometry" />
        </mxCell>
        <mxCell id="WMcVWSRBbnNXBX-DPDhE-32" value="" style="whiteSpace=wrap;html=1;aspect=fixed;" vertex="1" parent="1">
          <mxGeometry y="61" width="370" height="370" as="geometry" />
        </mxCell>
        <mxCell id="WMcVWSRBbnNXBX-DPDhE-3" value="" style="shape=image;verticalLabelPosition=bottom;labelBackgroundColor=default;verticalAlign=top;aspect=fixed;imageAspect=0;image=https://blogger.googleusercontent.com/img/b/R29vZ2xl/AVvXsEis6oAWStQsLIkq7eQ6yKYLfR9X7BAk70-AhJERFb7YRdEsu2xKG-0YqkBQ85JWGckWc6_ZLnN_mwFOTMsOQ07faoSNtA47RZOVCv3eEVel-EAduFV3dRS4Y8aoyDW7aTs2DGG0jQ5NTcdEHUZHCfEcHnAxq-80IOcKwJKLZ-N0lTLHPWy2NQBrTE9i/s728-rw-e365/OSV.png;" vertex="1" parent="1">
          <mxGeometry x="10" y="160" width="172.42" height="90" as="geometry" />
        </mxCell>
        <mxCell id="WMcVWSRBbnNXBX-DPDhE-5" value="" style="shape=image;verticalLabelPosition=bottom;labelBackgroundColor=default;verticalAlign=top;aspect=fixed;imageAspect=0;image=https://innowise.com/wp-content/uploads/2022/08/Pic-3-1.png;" vertex="1" parent="1">
          <mxGeometry x="240" y="160" width="98.89" height="89" as="geometry" />
        </mxCell>
        <mxCell id="WMcVWSRBbnNXBX-DPDhE-7" value="" style="shape=image;verticalLabelPosition=bottom;labelBackgroundColor=default;verticalAlign=top;aspect=fixed;imageAspect=0;image=https://miro.medium.com/v2/resize:fit:1050/1*Hp24J2YlyW6oe9skN6gVYw.png;" vertex="1" parent="1">
          <mxGeometry x="570" y="150" width="262.48" height="130" as="geometry" />
        </mxCell>
        <mxCell id="WMcVWSRBbnNXBX-DPDhE-8" value="" style="shape=image;verticalLabelPosition=bottom;labelBackgroundColor=default;verticalAlign=top;aspect=fixed;imageAspect=0;image=data:image/jpeg,/9j/4AAQSkZJRgABAQAAAQABAAD/2wCEAAkGBxMQDxUSDxQVFRUXGBYXGRgVGRgdHhkWFRcXFxYaGRYZHSgiHRslGxcYITEhJSorLjAuGCAzODMtNygtLisBCgoKDg0OGxAQGysmICUtLS0uNzUtLS0tLS0tLS4tLS0tMC0tLS81LS0tLS0tLS0tLS0tLS0tLS0tLS0tLS0tLf/AABEIAKgBKwMBEQACEQEDEQH/xAAcAAEAAwEBAQEBAAAAAAAAAAAABQYHBAMBAgj/xABCEAABAwIDBQUECAQFBAMAAAABAAIDBBEFEiEGEzFBYQciUXGBFDJysjQ1UmJzkaGxI0JTwRUzgtHxF5Lh8BYk0v/EABoBAQADAQEBAAAAAAAAAAAAAAAEBQYDAgH/xAAvEQEAAgEDAgMHBAMBAQAAAAAAAQIDBBEhBRIxM3EiNEFRgaGxFBVhkRMy0ULx/9oADAMBAAIRAxEAPwDbt0OqBuh1QN0OqBuh1QN0OqBuh1QN0OqBuh1QN0OqBuh1QN0OqBuh1QN0OqBuh1QN0OqBuh1QN0OqBuh1QN0OqBuh1QN0OqBuh1QN0OqBuh1QN0OqBuh1QN0OqBuh1QN0OqBuh1QN0OqBuh1QN0OqBuh1QN0OqBuh1QN0OqBuh1QftAQEBAQEBAQEBB+JJQ1pc4gAakk2AHUlfYiZnaHyZiI3lWTt9Rb/AHWc2/qW7l/C/H1tZTf2/P2d230+KF+44e/t3+vwWaKVrwHMIcDqCDcEdCFCmJidpTYtExvD9r4+iAgICAgICAgICAgICAgICAgICAgICAgICAgICAgICAg+XQVbaTbmnpLsad9KP5WHQH7z+A8hcqbp9Dky8zxCDqNdjxcRzLLse2mqK0/xn9zlG3Ro9OZ6lXmn0uPDHsxyo8+pyZp9qeEPmUrdG2S+A7S1FE7+C/u843atPpyPUWUXUaXHmj2o5+aTg1OTDPszw1HZvbqnq7MedzKf5XnQn7r+fkbFUeo0GTFzHMLzT67Hl4niVrUJOEBAQEBAQEBAQEBAQEBAQEBAQEBAQEBAQEBAQEBAQQ20G01PQtvO/vco26uPpyHU2C74dPkyz7MfX4I+bU48Ue1LK9pdvairuyM7mL7LT3nD7z/7Cw81c6fQ48fM8yptRrsmTiOIVTMp+6DssOzeyFTXEOY3JH/UeCB/pHF3pp1UTPrceLjxlKwaO+X+IaD/ANNaTcbu795x3t9b/D7uXp+qq/3LL37/AA+S0/bcXZ2/H5s/2k2QqaG7nN3kX9RgNh8Q4t/bqrTBrceXjwn5KvPosmLnxhXcyl7ouy17Nbd1NJZj7zRcMrj3h8DuPob+ig6jQ48nMcSnafXZMXE8w13CcVZURte0OaSLljxZw8wqPLhtjnaVxg1eLN/rPPySC5JIgICAgICAgICAgICAgICAgICAgICAgICAgIOPFMThpozJUSNY3xcePQDiT0C90x2vO1YeL5K0je0sw2m7TZJLx0I3beG8dbOfhHBvmbnyVrg6fEc5Of4VOfqEzxjUCWZz3FzyXOOpLiSSepPFWcRFY2hWzvM7y7sFwaesfkp4y7xPBrerncB+655c9Mcb2l0xYL5J2rDU9mezmGns+qtPJxt/I09Gn3vM/kqfPr734pxH3W+DQUpzbmfsvDW2FhooCw22fUH5dYixR88We7YbGUjyXwO3Mp4taLtPjdumU+X5K10mozeE8wo+ofp8fMT7XyhyYRgUVNq0Zn/bdx9PD0Uu15t4qO+WbJRriDcaHovExExtLxW01neH2Xb+GmcI5yZDex3diW9Xa29OKi30HfzRfaPqOSI2y8x8/ituF4pDUxiSnka9vi08D4EcQehVffHak7Whd48lbxvWXavD2ICAgICAgICAgICAgICAgICAgICAgIPxJIGgucQAASSdAAOJJ8EiN+HyZiI3lne0/afHHeOhAkdw3jvcHwji79B5qxw6C085OFfn10V4pyzDE8VmqZDJUSOe7xJ4DwA4AdArWlK442rGyqve153tLxpKd8rwyJrnvPBrQST6BfbXisby+VpNp2hpGy/ZgTaTEHW57ph+d4/Zv5qsz9Q+GP8AtY4On/HJ/TTKKijhYI4WNYwcGtAA/wCeqrbWtad7StK0rWNqw6F5eny6DwqqxkTbvNv3PkF7pjtedohwzajHhrveVdr8dc/SPut8eZ/2Vhi0la825Z/VdVvk9nHxH3RmZS/BUzvM7y6qOifKe4NPE8PzXLJmrSOUnT6TLnnakOXa7ZWrfCPY5Rw7zPdLvhkv+mnnyXHDrad3twt/2jsrvE7yyCqp3wvLJWOY8cWuBBHoVaVvFo3hFtSaztL2wzFJqaQSU8jo3eLTx6EcCOhXzJSuSNrQ+0yWpO9Zafsx2oRyWjrxu3cN433D8Q4t/UeSqs2gmvOPlaYdfFuLtEikDmhzSC0gEEG4IPAg8wq6Y24lYxMTG8P2j6IK1JtzRtxMYaXO9oNuXduWZw0uvxy/uEFlQEBAQEBAQEBAQEBAQEBAQEBBHbRfQ5/wpPkK7afza+sOGp8q3pL+e5acO4aFau2OJ8GVrkmPFZNkNgZa4CWRwjhuRcaudY2OUcB5n8iqvVaqMM9u3K00ulnNHd8GuYDs9T0TMtPGG+Ljq53xO4+nBU+XNfLO9pXGLDTHG1YSE0zWC7iAOq51rNp2h9yZaY43vO0OT/GYb2zfoV2/TZPkh/umm327vs6RVsy58zcvjdcuy2+23KVXUYrV74tGyBxLaUe7AL/eP9h/upmLR/G6o1XV/wDzh/tASzue7M8knxKn1rFY2hR5Mlsk91p3l+6eJzzlYCT0Xy14rG8mPFfJbtpG8rHh+AAazG5+yOHqeagZdXM8UXul6REe1m5/hOMYALAWHRQ5mZ8V1WsVjaIfbL49IvHtnqetZlqIw7wcNHN+F3EeXBdcea+Od6y5ZcNMkbWhke1+wEtEDLG4SQ3AubBzbmwzDnrbUfkFcaXVxmnt22lT6rSzhju34VuKnA46lWlccQq7ZJl/QWzP0Gn/AAo/kCyup863rLU6Xya+kJNcEhzYlWsp4ZJpTZkbHPcfusBJ/ZB/PsjmPwh+Kb+EV5rfbmx71mcMD8gjyk5rAd63gB5INnrDNiVDBNh9WaTeBkucRtkJY5huwtfoNSDf7tkFP7P6zEavEpT7e6poacljpDDEwTS2sWsyi+VpN81+Q8UEz2U47UVmHzy1UhkeyomY1xDRZjGsLRZoA0JKCrQbZVx2TkrjOfaRKGiTKy9t8xlsuXL7pI4IJsY3X0OHTYriErHtdDGYqVrABG+QtEeaQauJzDN62QVifbmopIIqw4tT1Ty5hmomsjADHkZmxOb3szAeJ8L8tQ26N4c0EaggEeR4IP0gICAgICAgICAgII7aL6HP+FJ8pXbT+bX1hw1PlW9JYCteyDZezP6tZ8UnzlZnqXvE/Rpume7x9VlqJgxhceAF1CrWbTEQmZckY6TefgplZXmV2Zx8h4BXGLFFI2hjdTqL5791v/jw3gXRwfJHBwsU2fd58HEAb2Gp4aL7vs+xG87Qn8M2de+zpu4PDmf9lCy6uscVW2l6Te/tZOI+6z0tIyJuVjQB+/mVX2va872X+HBjwx20jZ7ry7CAgIKv2k/VkvnH87VO6d7xH1/CB1P3efp+WMladmW97M/Qaf8ACj+QLIanzrestbpfJr6Qk1xSFS7TsIqq3D3UtDlDpXtbI57stogczreJJDRbwJQfGdm2FiIRmkhJy5c2XvcLZr+PO6CpU+zGMwYI7DYN1m3sjWy7yxFK7UgaaOLi4dAfyCxbF0uI0jYKV1HSw0zBZzo5nOdwJzWyjM5zuJ6lBD4Bs7i2GmppKRlO+nmmkkjnkebxCQAG8YF3EADTQXHGxQc8OwNYNmH4aRH7Q6TMBn7tt81/vW8AUF22i2Z9uwl1DIcjnRMbm45ZI8paeozNHogrGCYdisbIqeegw52TK11QXCzmNIBduw25eWjoL8hwQaSBbgg+oCAgICAgICAgICCO2i+hz/hSfKV20/m19YcNT5VvSWArXsg2Xsz+rY/ik+crM9S94n6NN0z3ePqlNqHEUryPu/lmC4aXzYOqb/p52/hRN+rdlNjfobG/Q2dNDWvidmjIB6gH914yY4vG0uuHPfDbuon6Pad3CVoPVun6KHfRR/5la4es2jjJX+k/RVzJRdjr9OY9FCvjtT/aFzg1WLNG9J/66l4SBAQEFX7SfqyXzj+dqndO94j6/hA6n7vP0/LGVp2Zb3sz9Bp/wo/kCyGp863rLW6Xya+kJNcUgQEBAQEBAQEBAQEBAQEBAQEBAQEEdtF9Dn/Ck+Urtp/Nr6w4anyreksBWvZBsvZn9Wx/FJ85WZ6l7xP0abpnu8fVY6ynEsbmO4OBB9VBraa2iYTMuOMlJpPxZVi9NJSymOUW+yeTh4gq6xZIyV3hks+mtht22cPta6OXa7cJp5KmQRxC55nk0eJK55Mtcdd5dcOmvmt21WZ+zM7B3crreB1/Vca6zHPjwkZOlaivMbS4JIHMNntLT1CkVtFuYV+THak7WjZ6wSFpBaSCOYS1YtG0vNL2pPdWdlpwfF953ZNHfv8A+VWZ9P2c18Gk0HUoy+xk/wBvyl7qKt31AQVftJ+rJfOP52qd073iPr+EDqfu8/T8sZWnZlvezP0Gn/Cj+QLIanzrestbpfJr6Qk1xSFV7T8WqKPCaiej/wA1oaA618jXPa1zwPEAk35ceSCsbH7Iw1UMFZFilZNL/Dke4TktLxZzo3x8WtvcZSboLvs9tNBXOnZDnD6eQxSNeLEOFxwudLg69EEZP2hUbKepqDvTFTTbiRwZxkzZSGa6gEjXqEHge06gE0cZMobI4MZMYnblzzpYS89dCRp1tqgldpNroKF7I5GzSSvaXNjgidI7K0gF1hoBcgceaDywnbekqqSeqiL8tOH75jmFsjCxpcQWHnYH8iORQRE3axh7Y2yjfvjIBc5kTnNizcBK4aNdwNrk6jxQTmK7YUdNSR1b5c0UuURZAXOkLtWhjBqT+3NB+tnNqIq7eZIqiExZS4VERjNn5rEZuI7jkEL/ANUsPzcZ9zmye07l+4zXtbe+F+drILs03Fwg+oCAgICAgICCO2i+hz/hSfKV20/m19YcNT5VvSWArXsg2Xsz+rY/ik+crM9S94n6NN0z3ePqtSgLBz1lFHM3JKxr2+Dhf/heq2ms7xLxfHXJG1o3Qv8A8Jos190fLO+35Zl3/V5dtt0T9u0+++33lNUdFHC3JExrG+DRb8/Erha02neZS6Y6UjasbPey8vbyqKZsjcrwCOq9VvNZ3hzy4aZa9t43VfFcHMPeZcs/UefRWWDUxfifFmtd06cHt05r+HBHpqpMxEquJmJ3hJtxuUcwfRRp0mNZR1bUR8v6SeHY0JCGvGV3LwP+yi5tNNI3jwWmj6rXLPZeNp+yWUVbqx2k/VkvnH87VO6d7xH1/CB1P3efp+WMrTsy3vZn6DT/AIUfyBZDU+db1lrdL5NfSEmuKQjsdxaCkh3lW9rIiQwucCW3foA7TgeFzogxna80NDVU1Vs7Oz2mSZrH09NIHskY698zGkhovZuXh3rgAi6Cb20xA4His9Y0WjraWQWsbe2Qgbu55XFv+5yDm2vwH2DY/cu/zCYZJfEyyStc+55kXy3+6gku2WBrNnYg0ABjqbLb+WzbC3hpog6NpNppjizaBtXFQRinbK6d7WOdISfcaZe6Ba58e65BVdk5WvbtG5kzp2mEWlcADJ/DqO9ZoAseRA1FkEtsZtVh8GzO7llia9sMzXwuIzue/ORaM6uzggg8LHobB4YHs5FJgGHRVlT7FUtfJPTSOLRZxkc9ujiAbhzHWuD+qDrw/H62uosWoHvjqZYIS1lRT2Al3jHd2w7ufQju87jlchXcCZ7VgrYZMdghp92GPp309OCyxuW3Lg8nMLhw1PHig2/A6MwUsMJfvDHGxme1s2RoGa1za9uCDuQEBAQEBAQEEdtF9Dn/AApPlK7afza+sOGp8q3pLAVr2QbL2Z/VsfxSfOVmepe8T9Gm6Z7vH1WpQFgICAgICDhxio3cD3dLep0XXDXuvEImuyf48FpUjfq52Y3Y9oX02PaF8mH3w5XfBqnewNcePA+Y0VNnp2XmGx0OWcuCtp8UL2k/VkvnH87VJ6d7xH1/Dn1P3efp+WMrTsy3vZn6DT/hR/IFkNT51vWWt0vk19ISa4pDxrKSOZhjmYyRh4te0OB82nQoI/DdmqOmfnpqWCJ/2o42NNjyuBeyCnYrhlZi+IQMqqX2eipJjKS97XOqHsJEeVo4NI1N+RPNBfq+giqIzHURslYbXZI0OabG4u1wtxQfK3DoZ493PFHJGLHI9rXNu33e6RbRBz4pgFLVFpqqeGYs93eRtdlHMDMNB0QcG0eCM9irRSwME08EjTu2ta6R27c2MOdpfjYXOl0EVsTshCMOoxX0kTqiKPL/ABWMc5pDnEDNrwvdBaMVwanq2htVDFM1puBIxrrHhcXGnog9MOw2Gmj3dNFHEzjlja1oueJs0cUHDLsrQvm3zqSndJfNnMTC4u8SbceqCYQEBAQEBAQEBBHbRfQ5/wAKT5Su2n82vrDhqfKt6SwFa9kGy9mf1bH8UnzlZnqXvE/Rpume7x9VqUBYCAgIPl0HjVVTIm5pHAD/AN4DmvVKWvO1YcsuamKN7zsqGP47vmFjG2bobniba+issGl7J7pnlntb1H/NHZWOFb9pUtV7HtKGx7Shs0XZmEspWB3E3d/3G4/Syp9RbuyTs1nTsc49PWJ9f7RnaT9WS+cfztXfp3vEfX8PnU/d5+n5YytOzLe9mfoNP+FH8gWQ1PnW9Za3S+TX0hJrikCCkTdo8LcXGGmJ2r2xGe4yCVzMwZa3G9m8eJQXdAQEEbtLiLqWiqKhgDnRRSSAG9iWNLgDblog8NjsYdW4fBVSNa10rMxa29hckaX8kEygisO2ggqKmemhcXSU+QSjK4BpffKLka+6eCDzwbEKqWpqY6im3MUbgIZM4dvmm9zlHu8Af9VuSCZQEBAQEBAQEBAQR20X0Of8KT5Su2n82vrDhqfKt6SwFa9kGv8AZjVMNA2MOaXtc8ubfUAuJFx4LN9TpaM82244aTpl6zhiu/PK4KuWQgIPy94AudB4lfYjfiHm1orG8oLEtog27YRc/aPD0HNTMWkmebqbVdXrX2cXP8/BWKqodI7M8knqrClIrG0KLJlvknuvO7xjhc92VgJJ5BfbWisby+Upa87VjeXpXbG1AZnjyk8476jyJ0Pko0azHvstP2vNFN/j8kJ/hFXe3s8t/hP78F2/z4/m4fo82+3bKzbObHvzCSrsANRHe5J+8RoB0UTNq422on6Xpk792X+v+r4Aq9eKh2mV0baF0Re0SOLC1t9SA4Em3hYcVY9Nx2nNFtuIV3U8lYwzXfnhkK0jON72Z+g0/wCFH8gWQ1PnW9Za3S+TX0hJrikODHcTbSUs1TJ7sTHPPXKLgDqTYeqD+d3YxRuwN7nVLRiTqo11g2S4lz2y5suX3Lute1yg0ntF2jdPsy2tpnvjdIIHXjcWlpc8B7czTfQ3Hogidt6Cpw2lpsTbXVL6jew71jn/AMJwkGrWxDQNFrW10ueOqCx7f1VK6piiqKqtDt2XNpaHeZ36++/dgm3IA25oKps7i00mG47SSuqHR08Uhi9q/wA5rZY5u7JqeGQfny4IPrp5qPBsHxKKSQR05Y2djXOyvhldYlzBoSDoPj6ILTidRJX4/HTQyyNgpYHSzGJ5AdJOAImusdbDK8XvzQVfs82VH+OYg32qr/8AqywEHe6ze+bTm3fHd6cSgk8F2ilpqjaCZ7nyimc10bHucWtIE1g0E90EgXt4IPfY/ZGaupocQrcQrN/NlmAilyxsaTma0RgWsRa404+qCJ2mrC3F6huNzV1PSnIKR9O57IQD7xe5g9+9uN7d6+mVBreEtaKeIMkMrQxgEhIcXgNFnlw4kjW/VB1oCAgICAgIOPF6d0tPLG213se0X4Xc0gXXvFeKXi0/CXLNWb0msfGGE4phU1K/JUMLDyPI9Wu4FazFnpljeksplwXxTteHPT1D43h8bixw4FpsR6hdLUreNrRw8Vvas718V+2c7Ri2zK4XH9Vg1/1M5+Y/JU+o6V8cX9LfTdUmOMv9tDoq2OZgfC9r2nm03/8AT0VNelqTtaNpXNMlbxvWd3NX4uyPQd53gOXmV2xae1+fCEDVdSxYeI5lWq6vfKe+dPAcFY48NKeDPajV5c8+1PHy+DhcF14RoSuH7Pvk1k7jf1PpyUTLq614rzK10vS8mT2snEfdZqKhjhbaNtvE8z5lV98lrzvaWgwabHhjakOmy8O5ZBzV9dHAwvme1jRzcf0HiegXumO2Se2sbueTJXHG9p2Z1tH2jOfdlEMg/qOHePwt5eZ/IK503S4jnL/Sm1PVJnjF/ahzzOe4ue4ucdSXG5PmSretYrG0Ki1ptO8vagoJah4jgY57jyaOHUngB1K85MtMde687PWPFfJO1Y3bxglM6KlhjfbMyNjTbxa0A6rJZrRfJa0fGWtwVmmOtZ+EO1c3VWO0PZuXE6P2WKVsLXPYZCWk3Y3XKLHjmyn0QTDMGgEQiEUeQNyWyj3bZbcPBBQW9mUwwabC/aWlrphJE4tPcZmDiwi+uoJv4uKCxbd7JvxLD20jJGxlr4nZnAkfwweQPNBw4zshVjE/8Qw6pije+FsMjZoy8ZWkG7bEa6DTpx1QcuFdncsLMUElVvXV7MudzdWuLZQXOA0teTQC1gLIO2swuCh2fdR18rN2ynexzuF+JBY0m5de1h42QcfYnhD4sO9pqLmaqIeS7jumNDIR5ZRmHxoOmn2Pq6fF5qykqIhDUuidNHJGS60fEMcDa5u7Xlm52Qe+D7ECOfE3zvbJFXkXYAQWttICCb6mz+I8EEdgWx+KULG01NiEZpWu7u8hzSsjLrlgN7eOp8dLcEHVtHs5ilW2enFXTClmLh34SZGRvPughwabA6E66ILVgOFto6WKmjJLYmNYC7iQ0Wubcyg70BAQEBAQEBBz11DHOwsmY17TycL+o8D1XumS1J3rO0vGTHW8bWjdnW0XZy5t30RzDju3HUfC7n5H8yrnTdUifZy/2pdT0uY5xf0p9Lgk8jyzIWEGzi8Foaetxx6BWU6ikRvvuqLx2TtbhccDwsUgOR7i5ws43IB/0g2/O5ULNf8AyzzDn/mvEbVnaEgV4cnTRYXJNwFm/aP9vFcMuorTx8UzS6HLn5jiPmsWH4THDqBmd9o/28FXZc9sk/w0em6fiwcxzPzSAXFOfUH5e8AXJAA1JPL1TaZ8HyZ2jdSNou0OKK7KQCV/2z7g8ubvTTqrTTdMvfnJxH3Veo6nSnGPmfszbFMUmqX553ueeV+A6NaNAPJXmLBTFG1IUmXNfLO95csbC4hrQSToABck9AF0m0VjeXOImZ2heNnezuSSz6wmNn2B758zwb+p8lU6nqla+zi5n5/Ba6bpdrc5OI+XxaRhmGRU0eSBjWN6cT1J4k9SqXJlvkne07rrFhpjjasbOxc3UQEBAQEBAQQ2ObLUlc+OSsgZM6K+TPcgZrXu29jwHEFBMNbYWGgHgg+oCAgICAgICAgICAgICD4UHNV0LJRZ49eY9V0x5bU/1lG1Gkx542vH/VcxXDHQNc/VzALnKCSB8I1KsMOpredp4lntT0vLinevMM+xTad77th7jfH+Y/8A59Neqt8eniObcoMUiPF54BtVUUZ7j87L6sfcg+NubT1H6rzqNFizRzG0/NN0+syYfCePk07Z3bKnrLNvu5fsPPE/ddwd+/RUWo0OTDz4wvtPrsebjwlY7qGmq5tFtjT0d233kv2GEafE7g39+imafQ5c3PhHzQtRrseHjxlmGP7UVFaSJHZY+UbNG+v2j5/or7T6LFh8I5+ah1GsyZp5nj5IRS0VZ9ndiairs5w3UX2njUj7refmbBQNT1DHi4jmU/T9PyZeZ4hp2A7M09G3+Ey7+cjtXH15DoLKhz6rJmn2p4XmDSY8MezHKZUdKEBAQEBAQEBAQEBAQEBAQEBAQEBAQEBAQEBAQfLIKztHsVT1d3tG6l+2waE/ebwPnoeqm6fXZMPHjCBqdBjy8xxLL8e2bqKI/wAZt2X0kbq0+GvI9Cr7T6vHmj2Z5+Si1GkyYZ9qOPmiFKRvBNDaus3G53zsvj/Nbwz8bKJ+iwd/f28/b+kr9bm7Ozu/6hSVKRd90rgWz1RWOtCzu83u0aPXmeguo+fV48Me1PP3SMGlyZp9mP8AjTtnNhqels+T+NL9pw7oP3Wf3NyqLUdQyZeI4he6fp+PFzPMrVZQFg+oCAgICAgICAgICAgICAgICAgICAgICAgICAgICAgIPxLGHAtcAQdCCLgjqEiZid4fJiJjaVF2j7Oo5LvoyI3cch9w+R4t/UeStdN1S1fZycx91Tqel1tzj4n7KEdnqrf7jcv3nhbS3jm4Zet7K3/V4ezv7uFT+ly9/Z28r3s52csZZ9ad47+m33R8R4u/QeaqdT1S1uMXEfP4rbTdLrXnLz/HwXyGFrGhrAGtGgAFgB0AVVMzM7ytorERtD9r4+iAgICAgICAgICAgICAgICAgICAgICAgICAgICAgICAgICAgICAgICAgICAgICAgICAgICAgICAgICAgICAgICAgICAgICAgICAgICAgICAgICAgICAgICAgICAgICAgICAgIP/2Q==;strokeColor=light-dark(#1A1A1A,#FFFFFF);" vertex="1" parent="1">
          <mxGeometry x="330" y="530" width="325.78" height="183.04" as="geometry" />
        </mxCell>
        <mxCell id="WMcVWSRBbnNXBX-DPDhE-10" value="" style="endArrow=classic;html=1;rounded=0;" edge="1" parent="1">
          <mxGeometry width="50" height="50" relative="1" as="geometry">
            <mxPoint x="182.42000000000002" y="210" as="sourcePoint" />
            <mxPoint x="250" y="210" as="targetPoint" />
          </mxGeometry>
        </mxCell>
        <mxCell id="WMcVWSRBbnNXBX-DPDhE-12" value="API" style="text;html=1;align=center;verticalAlign=middle;whiteSpace=wrap;rounded=0;" vertex="1" parent="1">
          <mxGeometry x="182.42000000000002" y="180" width="60" height="30" as="geometry" />
        </mxCell>
        <mxCell id="WMcVWSRBbnNXBX-DPDhE-13" value="" style="endArrow=classic;html=1;rounded=0;exitX=1.003;exitY=0.603;exitDx=0;exitDy=0;exitPerimeter=0;" edge="1" parent="1" source="WMcVWSRBbnNXBX-DPDhE-5">
          <mxGeometry width="50" height="50" relative="1" as="geometry">
            <mxPoint x="360" y="209" as="sourcePoint" />
            <mxPoint x="570" y="210" as="targetPoint" />
          </mxGeometry>
        </mxCell>
        <mxCell id="WMcVWSRBbnNXBX-DPDhE-15" value="Download zip and Extract JSONs" style="text;html=1;align=center;verticalAlign=middle;whiteSpace=wrap;rounded=0;" vertex="1" parent="1">
          <mxGeometry x="365" y="180" width="175" height="10" as="geometry" />
        </mxCell>
        <mxCell id="WMcVWSRBbnNXBX-DPDhE-16" value="Validate JSONs&lt;div&gt;and convert to parquet&lt;/div&gt;" style="text;html=1;align=center;verticalAlign=middle;whiteSpace=wrap;rounded=0;" vertex="1" parent="1">
          <mxGeometry x="365" y="220" width="175" height="20" as="geometry" />
        </mxCell>
        <mxCell id="WMcVWSRBbnNXBX-DPDhE-18" value="Store in Delta lake architecture" style="text;html=1;align=center;verticalAlign=middle;whiteSpace=wrap;rounded=0;rotation=0;direction=north;" vertex="1" parent="1">
          <mxGeometry x="690" y="298.43" width="120.78" height="11.57" as="geometry" />
        </mxCell>
        <mxCell id="WMcVWSRBbnNXBX-DPDhE-19" value="" style="endArrow=classic;startArrow=classic;html=1;rounded=0;exitX=0.857;exitY=-0.001;exitDx=0;exitDy=0;exitPerimeter=0;" edge="1" parent="1" source="WMcVWSRBbnNXBX-DPDhE-8">
          <mxGeometry width="50" height="50" relative="1" as="geometry">
            <mxPoint x="589.2243400000001" y="456.88832" as="sourcePoint" />
            <mxPoint x="609" y="290" as="targetPoint" />
          </mxGeometry>
        </mxCell>
        <mxCell id="WMcVWSRBbnNXBX-DPDhE-22" value="" style="shape=image;verticalLabelPosition=bottom;labelBackgroundColor=default;verticalAlign=top;aspect=fixed;imageAspect=0;image=data:image/png,iVBORw0KGgoAAAANSUhEUgAAASsAAACoCAMAAACPKThEAAABUFBMVEX///8AAAD///3//v8fGxgfGxr//fz8//////n///zocxcbGRjodBUeHBrndRP8//whGhodGBj0yaPdaAD///YbGhbncRsgGhcgGxbkcwzpchPoom8VExHicgDkfj7gbAD/7t6npaT+9+TbYwDdawD29PLZ2dc+PjzS0c8OCQeDgoD//+7i4eHt6+mvrav0///XaxLei0/oagBmZGI1MzH63sNTU1NwbmyamJa/vbl5enfjgjksKinRhlFSUE/Jycjvvpvco3zz0qrVdSnflU//687ZaSr/+OPsjFzlpGjJXQ3fo3HcfEXaZhj/8+rqxJXzpWjOejXgqHXqt5v95dnYdRr22sPurY7VkWLzv43jpWHZhi/9y6zWcjfRcw31l1L/7cXtuHr5oVP5uYDpyrXnnnjy0ZXonHCem6X66MHtsorGcSHeuKD51rP50L75wYiRnEAZAAAY2ElEQVR4nO1c+1saWbatB9SDVwkUIGUloAVq8dAC38aoHUKctJG0mZjpTHcyPbc7440zzP3/f7tr71OAdqJJ34tJvrHW9yUqdYCqxX6svc8uJClChAgRIkSIECFChAgRIkSIECFChAgRIkSIECFChAjfNHT6Txn9EuEm6Hr18LuLRwM94uqTMIc9L5/3HveVr30m3zgUXdl40k0lEt1aZyGyrJugGNbRn7xyuQy2vKfN1YisG2DYw++LCTCVSBSD4dc+m28czeN8schUFbsP4YVR0LoezWdOggwLpuV4F+aqqn7tM/pmYfSfODCqFHthojdUlMiwroOdO3EyoMphtiqdgWJeOhoamaKoqhZxaDwPnHIqk+riXyrhBIf2JU5AFckI07BNTdO+3kl+I7Dn8hAM5eCHIJMh6zq9okhBlLGw8fr4xxePFnT1rguK5v0u3K/c63dq8MSUUzu2NYPckAzK7g//fN7LA97Js5eGfcfd8Ois6KQSlQcLr4IuDCuVyOds4ko3Bq9ycw+CfKXi0MMJ7y/N5h13ww2PuMrPGdqFl8hkILNOj1T76H3uGDx1u2R0hEQx/2PTustcKbp06DnE1aGuVp9VMqQbvKev//pT4OUrEPJdh+QEIlnC6c419bssvQzdnMs7yIPevyVbHwYJVlqVWq2c4UjvEI9MVtHxfm5COHztM/56MMyF8xq4coL+qqnbqHYSpLMyjJArKHr8kfDmBsadlvSa0T8FIynnp6NVS9OrAbgCOxmypAwOdFl10V/lN1Vdv9stG/392wyMp/vYJq701zAy+BzqQzzazZ/c//VvFNydjNPbMIiqO2xZFmIUeZo3J6mKtqodPcwzV10vHzx7l/vll0dviKtMpje0ba597hxXwpd0kpqdipPIpLyfJVXTdMvYQObLg6e55xsLkt581IPmgokFOVM1ra992l8FVOYZR9Xc3JvgXspJnGWCl6iYwZVtv/7+9Cl4ghw1Fal6WoHRZYreoY3nqETy3YtYxtH71497QQ2SvAg4P1UVRXA1eLUwsE1LVxRLr8IjIawyb//O/seF9J0hS1EUXKsxGL54VsvDZFJlh8Rmsfu4CeWEg4apm+qqpqpEykIHEiKVuuc9bdrEEBvW176ELwZdN5r93FwPNV6GulWknzLlctf7u6EiuCsUuWFPOv0GqiokQ1PB4yM8ftdagLpiDJ/2KqjxSGgKrir33vY6r/umJAIS2R5zJdkvPIcrns4vFh25O1zBLExTqs4F+TJXeJCY1AvtesHcYX+g2BY7mVip61hqXjBVRafX1+8aV6ZpGtWOlxDFC5XC3Urw4HhYVcj5QISIRPSrrpiKkcuzVRV778ng7pSqIrMyLrxugr0vlYCG6rx+dDRALaxpyHlEFsK+ImAaOS6jE86ToXV3wnkIXL9l/9gtZkSkOvuvw1cDRbMsRTPBlUVcsUINqfr5jLcMu7VD8w7uFyqmbj90zs7IAaHDH+cWoDZVck1Ns0QG1EduaAyeecRVpvurLd3F7RtFt995jui0lMuV2unx8MjQzNCsRjs2EnOFHEjWlym+sO9QTJ8AQnN45lCTmFgoZxyKWH1woeoIV7RixJVlGP2ze7SqG2xQb+ELneC386EoOm8FQqxnRijng/Of+7ZlIvddqvWgr9QXNQ7tlae2rk/XC697McX8v/ZcFXzeU/88lUGul++Ww64nbUQ4ldo/f0OVzJF9wpWpHT3LcyIMhnBT8+aX/YNQjTDZCoR6BX/+8c+kvTzfaDRWFuvI5up07d9Qzf53T/IVVljcKb5XO7sY6FcLGNKiuvVnDxoMlvXwyKaOwzTx6t27d3MTHB8OqzbnmD+2s13fWfNlgfXtNqvA6VqXavcvOkGFup+J8r2uN7dhSuqidZkqRbcg1KunAS3KBP9oGuZ0Q8lvXuUyIPV6P+b6Bqj6/LfRpIN9Wc7G47HYbCzmyvGdqbchkfJWpcGjTlCjsjk4/RlG1VrbvRJEiCtj1X4UEJ+Z8v0Fw5gmV7qV85wr6DqJWtD5rWnpq5/5GpqkbctybCZeKs3OgqtY1pXnyQ2nCsuywUVz4+KN551c/GJL9XkfbzPhYlUybUMyVq2FDhc5GS9nTtWudDNXI+HCO2kcO8tl/F3xvhtYq593tapaX5MLpVJspjRbwo9YPFYoyCu3sRmAMKoY/dzc0JakgyW5IO+MBaeqWaaBQppMa8iGlXBOq1ONV7qRq1HdPt5aI8aoPj15d2SPq6wb31Gtb8qx2dnSDLgCWXHyRJB1cAvqhnMQyLCk9q7sFwr+suBKRWmoGv+6GFabFg7bx3nuSHgX9vWZ/o8DXOWJJidVJKsqZspdh0Sf4+QvbFX5FFd0SNuV4+AKZJELwq5ixJWbbk3tJC+/HcobGOzKnlxIFwp7bSqfFUpDKyt67uTkzXmuj894402iDK4gSK1VY2pkqYKrVCZV7HpAt4J4xbMBiTcvVfMTXPGhAzmZpjiVlbN7s7IfK8Xi6YIrb7WndY6/f0NJasluspBMu0vgibnCSWxLw5NypeIFHfA1V6ONVRpkWLWmprGYqyLpu7Mf5ubOO6c90dIgMXdhT0TXx9miA/UlH143m3b3VtqSsbMvI2DFfX/lNgsMfDxA2t+UhF3hAXlL2gi4X9rter0H5B604zXNxgz5oFOEWTk/9Q3DGCz0X5xWUmL0q9M0DRi8hgCpT1QdBN+qzljVLTardHwGXgefUwzDNLbkdFbeb0n1y7H901Hv89aEWJHTxBX4Ya6kxaTrLqn9+0hRFG4dqHrkQfyszRlT5cpzaO7ZeVDlYkG3h70Udz8SZ1WJBuUMG7DGos/S1SZYNU27aVNK3pbjMzMzMfgAtY8Msw6l1dCka6SoAilxDR9/IK7MM1dJvCd1+6RWwU0m3VbzKRhyOJ+nqN2M+Ft5UJ06VwniStRVq80XeeaqnH/Vejd3fg4x/0NudSy2dP3V0+OnePDp0w2qjzZDrpC+xYe8vH5ATF3R/e3Flcbu7m5jp12/VqXWWzvbtGaeiqRLnZYRlLoAfm2EXO1QuJJa624yHpcP7F89UWAzV9SYz5R70+WKfJDtSidT0Ax7GJSJq3te7uX3lVqtBjH/8JIpGxc1Fvher2+KcEVcuWvElabAV2FUlMXHdqIdNOLyCEvbdSbiCmFgdXF7abxmr4EcqiljruiV2vNb+0vA+hZC+aafBuIyS4b2EqJAdkb+b+X52xpSE+2G8egV/is/W5jelJp6mStJdLcH9+9RiVr2ntvn+XIZ3uj0Xk2MZOHUYS7zDxck4spFvCrNkhNqlxxsHHuUHZDgZrO4uALgy+62+oGHLm+iRMqWKOyl00lXlnfrkjL2e1WqN1Bs+gTEKKW+7pIwSfsthPU6UYVPC1wdvf/HX9+cdJknhuO9a05XM5Sply24onaDMrhf4ckl77kypKloh2bHJ0/ZCHgQ0wlyNnnALvwhTpIKUl0RFbN+iavWpgzDQ6kIO5idFdpiqX3ZEXG5u8QmGC+ViM4CXk2e2ZEmMXIRcooex6tQXGz7SeLKXWorSnsTORFcydu6riqWsTA87px5PCvqON79qjq9CeRRHmSudMmC1JMGnYpDqdB7LlV7KHkQzWqP7fHFXVT4XgXn+6pOpemKHGeu0q4sKmbRTQq5WinIiCVx4ipWmhXlYtrfW7zU4zKXl2QcJR0ruMKSUpxebZQVW3s+yVsSI3F8ItKizILXXwPRaxS68PC2Bq6QcyxJWdjI/dDLV2qV4Lhvqob12en101x5E65QTIGrl70KT19WcpI5V+PebeZtdfQMMAmfLTv58zpxZbbTcEI6dcTaA9F408fZf1uehTXArWBVMeIinqZq0V2/JFR3ZB/GxjwWIMZj4KSEgslFNBKXWF/3C0wyzCdL77EjuJIbRBWJB1gb5xXAQkko6Xb/0evvDvsLhs6bGLfElaUruaAYkIrID1Xt1VuoOvwR5EbPeBlkSMY4+Z8NXSMdiATOdoW0TZalixECPruGTPzMQMeL3pYfy2azXC3uj51wR6wBVa6I7IUY/T2T9eNtsWhbTpPNEVWgsE0PCK62pS0hSvGbqQi26Ap0JChyPX0VAgdxZXp2JbRo97SqadS+1o86eeIKAemlqg06+S7ZWB6iTuzsHnoZmpcrvxlYKmsElM5wISIrjSw+2etVwSLZEsKZ7O9v7+zsbO8jdsWTcLM00r04gWVEIuYKKbKxs3OwslaQkdVm4tks2Q1evy27adEWI6TrFCIFVysNOcbaocGfDnPFEUBlzQK1h9SuTI0rkQczzJWqkiJfmOPeI3Tcszre/lDseDu9KmKtpejNh5Uy1aXlc9XShZhvuS6nOPgCkyWJk0VYSSJIUSDbXdQobyh1hCbYH7hyl0Rire+5bEclee1APKK1GzKooiAntylkhR6HGmqZgFVb4pHYGv2EVTVG/RDp0j7FmKCpzcmM82C5U4U8H/QPOzXUUdSgqX2Hz0R7+aTLXAWPTHAl6X1E+3Ii5ZwM9XGeOpBd4goxiUOyKhrIUF7kNDPy3jI3CCySX0h5SRGMD/ipu5AK2RnXDe1MXPG8HGewDIEjEy9Zv03hiwrl+r4vuBLKQW4oE4UykYHTHyXSx1ydPQQ6Z7VKuUj3eTrdJ6+oJ6OdM1eJ/Ismc/XI463y7psja3TTrIpceCV/CSdEgqQuDRSCaAaEbsI6MjZLxsAeCMuIJ91liXfbmSsNDHI72t+nqCysyF+TRv2X9p4bGwMOqIQFgy6U/rTN6UOu4HOAw9u7PCBeO7ctGifMeWKWonNEXBnvKrz/252z7bGuVlUma5acadYtLFJ9Td41g4hd2GuPO4YUfuGZrLT8fRL2mz5WpKkxSD06ka90S2r7WWqJFQotPImsCDZGjkZ8alLLL0y48vdFvaCMtr5GznibXPEIGA/TM1dBp2o0cQJWv8djT87bDVyPVL3vcNvUG1rNEVfkcPNyEnGH1GTMX6pT5JlH1AFXoUwac6VIUESkSpHlwBspBYrNoMoatTLg2ms+2dWsvKxo7XWXY9c8C3kyzQM5dglciOJxHn68lIRvl6tRYYDys9w93TB1w5RUpXne5YdrF3SmGydsVpVnA8seh1HkHFDjwgNncPKz5BVECbJZyV8Lt1KUUaai7IhFJZmTP1hD1K4zV6OiiOM5dAZe6YD4THLsAueW6OutXOHK3WtJok7XJ4NYt8LVOLanJlylyuVaZ8MWXOr28IQcM9N91lQU40Wep6DK3xmGeXW0dwVkMVexWbdlUh2SpfS2cvmcFWWU18AVLnHfp44qzArvY+nKZM0ycVWIEVfLHOiT8uK4R9uQ45PQjti+H7Y0bnvQ+BJXIV1Ot1L758XAWBVTFYa98Ce+k7Eb9CWl2emWWXoNTY2KiksvRLGcAXNAzbaMsETX01Z+1/ILNUDBbUntJNd1Qu6LBmYYbUhuIKtCumN5FhVSMl03w/yAIEdZJObOM1vpNOuw26VJElwIrlKJoie2UvO9h//qN1XNEJ+VZVoX+TPo9G7+uWT0YWMpsrEF63ftPJUsKxkXYWaT1XyaylvlA66EC7lLdQrznMlaV7mSqKGO8J1lriAgwJW7JI1yqbQkDMpvsX5Pcx/rC1A1iVep4p+OgV9fD6sDmi4c8QAV9T5gc0PqMy487nd4fzFxdVe4IgFB5051nbtOqkhwJYnp1nD0BwE8VN3yFnXJmSsop99zBS0xW4I9tSEZfDJWwRXVMEp9T3QZ9tr1fTlWoh5O8jb2Qa7lqnzvAWlR2zZFS3PClW4ddfjWlm6vaneK3Io/+TcdujKyQBWQJoRPyd3TNM5kMWJNGk9ocJVUFw0V5DW4V1oYiDSmk7lSwSJxBXGvSPs+2RW11jmfWrDGrDBMDb+6JS5yNr/EnZSj/UFwNRA7DgrPfSjj2lbR7ZxHOsKpDatn1JtNOM8GIoximbIYnqYieu8QDjM+LmOTuYqxzYxzkkiD1NNMw/GQ/LmQpIqbD6nhhHXop0iiCvX1QgkfljDgkbnyiZ8VURBS5/26Dv/0IPYHU2xXojT54L4VVe0/4aBfORzm+dZY78Kmb1Cij3l5DQmKV0mil8VcbfElhuYjWjThGqmVdqlD429ifUsWJrYV3t3AJ6AI0sOmi9JOZpmrA2lU7e3IvLWNg6qkbXKjgdtBX4Iruh+DuZKu48o+5/Ze7cX/MFep4BXtdqEWXlyTfT5n5oGCVJzbufPSImpB2oKGMIVy0kKuFAkhRpjVAWJiXfgs9IDGYTscRFLqCqrikvDTA1mU0VwMsErZlmfi3GWgl2ynXeYK0et2iZLEPIPg6n71mrlHkPJb2UGFmH/8OMhkEql7nQG1i5TFLRlOlBZVMNnMIo0VxWeyCEAHMneqSjCaUK7zGlAlenObvOuzJQIWtf40YXvgSmssS0s+VQCir8dcZVshV9RlmBkpDYmOE1WFgrymTXsy5yauKMt8RM+ZhrlwyvfAPOjxyEPtgkPwLk9coe5NL4qFyyK0xP1N8kbmiq5prT2aPlV31uUs9W5cv8WzcDuyqOzkpUWxBle7uOkiSWSZq7YU9hxIYVAbD8lSW3Jn+TnLkkruvSszV4XQvr8QVxJtlH7IlWIYzeOAeg8Zp5xJFDMQpRLX/+k0HC6e9uPzrXp7sUH7C2FsoSgfcpWW0ziMPNDa2Zf9bIw7ffMKcxVuyMBV5QaPTrYPYKtLUtulqZsCcSVEur+mCcmBNWnBb1woDam956eTBZEibpcsneNVZsSV8jGuTFPZoImmFN/Gn6h0eNiIhgooOMWhBmV5L0mbViIMQ0ajGsQxwQOCjby0ubnkg6k0c0UruDlAqoE6NGl+if3NffxIy2t46RnquK/XKXhzcNplm2PNkUyOtKzK+YXOIxkrldx4a9xkuJW7m9WrXH2sqKLG7EKHO8ncnPFe0yJqqMjcyyvF0iAgmcwKruT9OlhYci9xBR/yXdeljBYrzBZw4WFzXDG3RKhHaoxnfd/nWNaAB4OrEnxZCyUbOVioaZeF30IyiIpAhellqcERh8pSJm3kL8DVR24MxrvbL7xM+A1mTtA3RSW46GfJsBBYxC6LcEAu+0kyjLm6AljVtskNPc4ao7yIGE+TbrSXigTHOq0ETs26K2TFypgrVFJJtjRlxFXYgBV7h7fIlYhXgquwz/kRN9T19wFFNdr3rjy0R19UBhWUFWSNOEnK+21qJ7WTBeLKlcPHRxaGEq+wY9LHH1Y0GsiKM1W86UUWhnCHAom4wqVDgrEPLkphEwxvKrjaHn2SGkwNRk27j6TCvgxX1uSmqQ+4as7lxQ18iSBn6qMhZQrnoGomNJ4sQnTdEo5CcT+2viX7IVeFWRG5dtsjP9HDscCGTHsYYn8QXLlQW2s+tXdIQSGgsfBsXerIELOhUhH7N7QrlqbujptuS7fKVeUyV9IH4ymCK/0wL76cxenB/ija8LKVguwi++FMszSFsLksGnJ0iQhOyF7IfbJPKwoFHPe3FsNQNeYKgPbHmgIqO9f1ZXmtXg8n5ZfJdMXGYt0azRjuhwMirQlXWn08N7JZ18zb4mrVOPQ8/vaxN9VJa/IDKDpKwRTf2vGjoaviaulAfTLestRYDKs5UkUI5DEO4suN/T3e2Fva2mnzSIw0csFJC2Z7c534SS6trWBNfZ6xAhWxLH7dGZuVtCMe2a4rl18Aq+dXVlbmt1u3157RjVfHAn+u38CVYTYf0A5qohvk2DCs0PxUSW0d7Kys7By0xnNCKjlnMgmPo+1gIrS1vLzY1m4sb+uLywfLLe2KQUzO5iNPVD4+B3qLEkszNIOgGU3V+pgSFTCV6qmYVu31xa2zYQP5movnMYMkTc4olyqP/8d9J1cbn2Mju7LklvsyyqRtaWo3NKx1PScme/NzJlNl3fg1GvW4Cy2dlpfHk/qXXmo6p/0hV18W11+GvvCQOwyp4JHOt4Neb4KEOsyqgBRe18IbbCedw6lsIHx9qq6HRvcD0ZSDc1oVA0PKjZfc5kmGki/aq/po1/4/myualTNgQ9XTPFc4+RdN9TNOlJpOtKl6212SbwomzWbbzVfPul0ucIINS2ym3MwVN1Jm5K279E0SSjP3Ipd7/rTHX9aZSFT+tqBa3MC8+XkNnoMdlyF3AkbzOB8EdDMo7UnQLRuKzve3fCLoNNZpvHpv54uc5DcCwz6uZfj7J3mrK3/Bg6qf/OItrc7tqTv1jZ6qaR/nmasi7008PqLGpFBkN1rWH7n/9z8EqgSuuBlaRHmd7yxQSlRvkOt3GKpqv6uIe6DLtZPjI2ss1yOuPoT9LiDkveDxsGlaXAZK6p37XqnPgKLY1Q2B/oJhogzmOwYjnj4CxQhhmorJ/qeH6urOfP/kZwME6VdhRVxdA2W0LS6Nq95wczjCB/hQJYlvQ4gQIUKECBEiRIgQIUKECBEiRIgQIUKECBEiRIgQIUKECBEiRIgQIUKECBEiRIgQIUKECBEiRIgQIUKECBEifD38L+tFvKNiJEKxAAAAAElFTkSuQmCC;direction=south;" vertex="1" parent="1">
          <mxGeometry x="610" y="341.45" width="39.08" height="69.55" as="geometry" />
        </mxCell>
        <mxCell id="WMcVWSRBbnNXBX-DPDhE-24" value="Index and Optimize" style="text;html=1;align=center;verticalAlign=middle;whiteSpace=wrap;rounded=0;rotation=0;direction=north;" vertex="1" parent="1">
          <mxGeometry x="690" y="341.79999999999995" width="140" height="8.98" as="geometry" />
        </mxCell>
        <mxCell id="WMcVWSRBbnNXBX-DPDhE-27" value="" style="shape=image;verticalLabelPosition=bottom;labelBackgroundColor=default;verticalAlign=top;aspect=fixed;imageAspect=0;image=https://miro.medium.com/v2/resize:fit:698/0*iY0NoIiNx1H87WpF.jpg;" vertex="1" parent="1">
          <mxGeometry x="190.84" y="620" width="103.16" height="59.12" as="geometry" />
        </mxCell>
        <mxCell id="WMcVWSRBbnNXBX-DPDhE-30" value="Derived tables and Quality checks" style="rounded=0;whiteSpace=wrap;html=1;strokeColor=light-dark(#FFFFFF,#FFFFFF);" vertex="1" parent="1">
          <mxGeometry x="210.00000000000003" y="480.00000000000006" width="120" height="60" as="geometry" />
        </mxCell>
        <mxCell id="WMcVWSRBbnNXBX-DPDhE-36" value="&lt;font style=&quot;font-size: 24px;&quot;&gt;Data Ingestion&lt;/font&gt;" style="text;html=1;align=center;verticalAlign=middle;whiteSpace=wrap;rounded=0;" vertex="1" parent="1">
          <mxGeometry x="50" y="90" width="280" height="30" as="geometry" />
        </mxCell>
        <mxCell id="WMcVWSRBbnNXBX-DPDhE-38" value="&lt;font style=&quot;font-size: 24px;&quot;&gt;Data Lake Architecture&lt;/font&gt;" style="text;html=1;align=center;verticalAlign=middle;whiteSpace=wrap;rounded=0;" vertex="1" parent="1">
          <mxGeometry x="589.22" y="90" width="280" height="30" as="geometry" />
        </mxCell>
        <mxCell id="WMcVWSRBbnNXBX-DPDhE-43" value="&lt;font style=&quot;font-size: 24px;&quot;&gt;Data Processing&lt;/font&gt;" style="text;html=1;align=center;verticalAlign=middle;whiteSpace=wrap;rounded=0;" vertex="1" parent="1">
          <mxGeometry x="192" y="720" width="466.01" height="25" as="geometry" />
        </mxCell>
        <mxCell id="WMcVWSRBbnNXBX-DPDhE-45" value="DAGs" style="text;html=1;align=center;verticalAlign=middle;whiteSpace=wrap;rounded=0;" vertex="1" parent="1">
          <mxGeometry x="259.44" y="249" width="60" height="30" as="geometry" />
        </mxCell>
        <mxCell id="WMcVWSRBbnNXBX-DPDhE-47" value="Time travel and rollback" style="rounded=0;whiteSpace=wrap;html=1;strokeColor=light-dark(#FFFFFF,#FFFFFF);" vertex="1" parent="1">
          <mxGeometry x="210" y="550" width="120" height="60" as="geometry" />
        </mxCell>
        <mxCell id="WMcVWSRBbnNXBX-DPDhE-48" value="Partition by ecosystem and date" style="rounded=0;whiteSpace=wrap;html=1;strokeColor=light-dark(#FFFFFF,#FFFFFF);" vertex="1" parent="1">
          <mxGeometry x="690" y="370" width="148.43" height="41" as="geometry" />
        </mxCell>
        <mxCell id="WMcVWSRBbnNXBX-DPDhE-49" value="" style="image;html=1;image=img/lib/clip_art/general/Star_128x128.png" vertex="1" parent="1">
          <mxGeometry x="658.01" y="290.79" width="18.44" height="20.78" as="geometry" />
        </mxCell>
        <mxCell id="WMcVWSRBbnNXBX-DPDhE-50" value="" style="image;html=1;image=img/lib/clip_art/general/Star_128x128.png" vertex="1" parent="1">
          <mxGeometry x="658.01" y="330" width="18.44" height="20.78" as="geometry" />
        </mxCell>
        <mxCell id="WMcVWSRBbnNXBX-DPDhE-51" value="" style="image;html=1;image=img/lib/clip_art/general/Star_128x128.png" vertex="1" parent="1">
          <mxGeometry x="660" y="370" width="18.44" height="20.78" as="geometry" />
        </mxCell>
        <mxCell id="WMcVWSRBbnNXBX-DPDhE-58" value="" style="image;html=1;image=img/lib/clip_art/general/Star_128x128.png" vertex="1" parent="1">
          <mxGeometry x="190.83999999999997" y="499.22" width="18.44" height="20.78" as="geometry" />
        </mxCell>
        <mxCell id="WMcVWSRBbnNXBX-DPDhE-59" value="" style="image;html=1;image=img/lib/clip_art/general/Star_128x128.png" vertex="1" parent="1">
          <mxGeometry x="191.99999999999997" y="560" width="18.44" height="20.78" as="geometry" />
        </mxCell>
      </root>
    </mxGraphModel>
  </diagram>
</mxfile>
